<?xml version="1.0" encoding="utf-8"?>
<!-- Generator: Adobe Illustrator 24.2.1, SVG Export Plug-In . SVG Version: 6.00 Build 0)  -->
<svg version="1.1" id="Layer_1" xmlns="http://www.w3.org/2000/svg" xmlns:xlink="http://www.w3.org/1999/xlink" x="0px" y="0px"
	 viewBox="0 0 774.2 773.2" style="enable-background:new 0 0 774.2 773.2;" xml:space="preserve">
<style type="text/css">
	.st0{fill:#FFFFFF;}
</style>
<g>
	<path class="st0" d="M387.1,20.1C185,20.1,20.6,184.5,20.6,386.6C20.6,588.7,185,753,387.1,753s366.5-164.4,366.5-366.5
		C753.5,184.5,589.2,20.1,387.1,20.1z M387.1,734.5c-191.8,0-347.9-156.1-347.9-347.9c0-191.8,156.1-347.9,347.9-347.9
		C578.9,38.7,735,194.7,735,386.6C735,578.4,578.9,734.5,387.1,734.5z"/>
	<path class="st0" d="M387.1,60C207,60,60.5,206.5,60.5,386.6S207,713.2,387.1,713.2s326.6-146.5,326.6-326.6S567.2,60,387.1,60z
		 M702.4,386.6c0,173.9-141.5,315.3-315.3,315.3c-173.9,0-315.3-141.5-315.3-315.3S213.2,71.3,387.1,71.3
		C561,71.3,702.4,212.7,702.4,386.6z"/>
	<path class="st0" d="M560.8,456.9V582H213.4v-16h59.4V188.9h-59.4v-15.9h202.2v15.9h-59.4V566h81.7c56.2,0,93.3-35.4,110.3-105.1
		l0.2-0.5l0.8-3.5H560.8z"/>
</g>
</svg>
